<?xml version="1.0" standalone="no"?>
<!DOCTYPE svg PUBLIC "-//W3C//DTD SVG 20010904//EN"
 "http://www.w3.org/TR/2001/REC-SVG-20010904/DTD/svg10.dtd">
<svg version="1.0" xmlns="http://www.w3.org/2000/svg"
 width="1188.000000pt" height="1280.000000pt" viewBox="0 0 1188.000000 1280.000000"
 preserveAspectRatio="xMidYMid meet">
<metadata>
Created by potrace 1.15, written by Peter Selinger 2001-2017
</metadata>
<g transform="translate(0.000000,1280.000000) scale(0.100000,-0.100000)"
fill="#000000" stroke="none">
<path d="M11695 12793 c-119 -26 -272 -93 -810 -350 -492 -236 -619 -295 -830
-385 -667 -286 -1214 -451 -1685 -507 -246 -30 -303 -39 -437 -72 -629 -153
-1321 -550 -2033 -1168 -484 -420 -919 -868 -1533 -1576 -119 -137 -272 -308
-339 -380 -355 -380 -675 -816 -1063 -1450 -439 -718 -517 -843 -623 -1005
-63 -96 -165 -256 -227 -355 -62 -99 -187 -296 -278 -437 -372 -576 -525 -843
-670 -1168 -116 -261 -251 -647 -287 -820 -11 -55 -34 -118 -63 -177 -182
-362 -384 -869 -491 -1235 -79 -268 -146 -562 -146 -637 0 -31 -8 -45 -56 -91
-30 -30 -71 -76 -90 -102 l-35 -47 26 -63 c73 -180 201 -282 369 -295 59 -5
86 -1 142 17 135 44 246 114 348 218 27 28 54 48 61 45 21 -8 83 30 215 132
292 224 449 325 504 325 51 0 157 -71 340 -229 178 -153 217 -193 391 -401
261 -310 380 -421 540 -500 102 -51 176 -70 295 -77 177 -10 377 41 615 157
267 130 481 292 902 682 147 136 684 686 768 786 15 17 30 32 35 32 4 0 11
-42 14 -92 4 -51 16 -154 26 -228 51 -364 130 -585 274 -766 57 -71 75 -86
148 -123 118 -60 208 -81 348 -81 221 0 459 84 789 278 95 56 645 416 1221
799 621 412 844 533 996 537 77 2 95 -13 156 -130 46 -88 64 -113 123 -164
312 -269 678 -190 791 170 8 25 17 84 21 132 6 84 5 89 -22 130 -64 97 -125
155 -214 201 -188 99 -360 134 -606 124 -367 -14 -773 -142 -1340 -422 -422
-208 -1038 -565 -1430 -826 l-220 -147 -27 53 c-62 120 -92 295 -108 630 -12
251 -22 342 -51 452 -45 173 -116 301 -219 396 -188 174 -436 166 -722 -22
-162 -107 -259 -201 -591 -566 -652 -720 -1016 -1067 -1353 -1291 -119 -79
-118 -80 -229 86 -126 189 -211 296 -345 434 -264 271 -507 437 -764 521 -144
47 -230 60 -401 60 -278 0 -491 -56 -763 -202 -46 -25 -85 -43 -88 -41 -5 6
51 212 112 413 34 112 169 508 178 522 1 1 46 -5 101 -14 164 -25 389 -9 585
42 181 47 555 219 609 281 37 42 41 89 10 127 -33 43 -78 51 -215 38 -65 -6
-195 -18 -289 -27 -269 -25 -526 -7 -574 41 -12 12 -11 21 7 62 l20 48 94 13
c471 63 1553 201 1978 252 96 12 254 25 350 30 190 10 283 29 396 80 182 82
273 184 520 583 142 230 234 338 412 480 219 177 386 332 1237 1152 1089 1049
1317 1250 1550 1367 453 228 1413 801 2065 1233 630 417 1021 717 1283 981
184 186 242 280 287 458 81 322 93 687 41 1286 -37 427 -42 501 -42 719 -1
372 39 592 158 869 51 120 51 151 0 183 -31 18 -92 23 -142 12z m-4954 -11793
c20 -11 25 -36 11 -57 -6 -9 -18 -4 -45 18 -20 17 -37 35 -37 40 0 12 47 12
71 -1z"/>
</g>
</svg>
